<svg width="34" height="34" viewBox="0 0 34 34" fill="none" xmlns="http://www.w3.org/2000/svg">
<path d="M9.25 9C8.00736 9 7 10.0074 7 11.25V13.75C7 14.9926 8.00736 16 9.25 16H11.75C12.9926 16 14 14.9926 14 13.75V11.25C14 10.0074 12.9926 9 11.75 9H9.25ZM8.5 11.25C8.5 10.8358 8.83579 10.5 9.25 10.5H11.75C12.1642 10.5 12.5 10.8358 12.5 11.25V13.75C12.5 14.1642 12.1642 14.5 11.75 14.5H9.25C8.83579 14.5 8.5 14.1642 8.5 13.75V11.25ZM16.25 10C15.8358 10 15.5 10.3358 15.5 10.75C15.5 11.1642 15.8358 11.5 16.25 11.5H26.25C26.6642 11.5 27 11.1642 27 10.75C27 10.3358 26.6642 10 26.25 10H16.25ZM16.25 13C15.8358 13 15.5 13.3358 15.5 13.75C15.5 14.1642 15.8358 14.5 16.25 14.5H23.25C23.6642 14.5 24 14.1642 24 13.75C24 13.3358 23.6642 13 23.25 13H16.25ZM9.25 18C8.00736 18 7 19.0074 7 20.25V22.75C7 23.9926 8.00736 25 9.25 25H11.75C12.9926 25 14 23.9926 14 22.75V20.25C14 19.0074 12.9926 18 11.75 18H9.25ZM8.5 20.25C8.5 19.8358 8.83579 19.5 9.25 19.5H11.75C12.1642 19.5 12.5 19.8358 12.5 20.25V22.75C12.5 23.1642 12.1642 23.5 11.75 23.5H9.25C8.83579 23.5 8.5 23.1642 8.5 22.75V20.25ZM16.25 19C15.8358 19 15.5 19.3358 15.5 19.75C15.5 20.1642 15.8358 20.5 16.25 20.5H26.25C26.6642 20.5 27 20.1642 27 19.75C27 19.3358 26.6642 19 26.25 19H16.25ZM16.25 22C15.8358 22 15.5 22.3358 15.5 22.75C15.5 23.1642 15.8358 23.5 16.25 23.5H23.25C23.6642 23.5 24 23.1642 24 22.75C24 22.3358 23.6642 22 23.25 22H16.25Z" fill="white" fill-opacity="0.48"/>
</svg>
