<svg width="34" height="34" viewBox="0 0 34 34" fill="none" xmlns="http://www.w3.org/2000/svg">
<path d="M23.4923 7.33033L26.671 10.5091C27.5497 11.3878 27.5497 12.8124 26.671 13.6911L24.2476 16.1137C25.2631 16.4315 26 17.3797 26 18.5V23.5C26 24.8807 24.8807 26 23.5 26H10.5C9.11929 26 8 24.8807 8 23.5V10.5C8 9.11929 9.11929 8 10.5 8H15.5C16.621 8 17.5697 8.73785 17.8869 9.7544L20.3103 7.33033C21.189 6.45165 22.6136 6.45165 23.4923 7.33033ZM16 18H10V23.5C10 23.7761 10.2239 24 10.5 24H16V18ZM23.5 18H18V24H23.5C23.7761 24 24 23.7761 24 23.5V18.5C24 18.2239 23.7761 18 23.5 18ZM19.44 15.9993L18 14.5593V16L19.44 15.9993ZM15.5 10H10.5C10.2239 10 10 10.2239 10 10.5V16H16V10.5C16 10.2239 15.7761 10 15.5 10Z" fill="white"/>
</svg>
