<svg width="34" height="34" viewBox="0 0 34 34" fill="none" xmlns="http://www.w3.org/2000/svg">
<path d="M23.4923 7.33033L26.671 10.5091C27.5497 11.3878 27.5497 12.8124 26.671 13.6911L24.0866 16.275C25.1696 16.4375 26 17.3718 26 18.5V23.75C26 24.9926 24.9926 26 23.75 26H10.25C9.00736 26 8 24.9926 8 23.75V10.25C8 9.00736 9.00736 8 10.25 8H15.5C16.6289 8 17.5637 8.83145 17.7253 9.9154L20.3103 7.33033C21.189 6.45165 22.6136 6.45165 23.4923 7.33033ZM9.5 23.75C9.5 24.1642 9.83579 24.5 10.25 24.5L16.249 24.4993L16.25 17.75L9.5 17.7493V23.75ZM17.749 24.4993L23.75 24.5C24.1642 24.5 24.5 24.1642 24.5 23.75V18.5C24.5 18.0858 24.1642 17.75 23.75 17.75L17.749 17.7493V24.4993ZM15.5 9.5H10.25C9.83579 9.5 9.5 9.83578 9.5 10.25V16.2493H16.25V10.25C16.25 9.83578 15.9142 9.5 15.5 9.5ZM17.75 14.3093V16.25L19.69 16.2493L17.75 14.3093ZM21.3709 8.39099L18.1922 11.5698C17.8993 11.8627 17.8993 12.3375 18.1922 12.6304L21.3709 15.8092C21.6638 16.1021 22.1387 16.1021 22.4316 15.8092L25.6104 12.6304C25.9033 12.3375 25.9033 11.8627 25.6104 11.5698L22.4316 8.39099C22.1387 8.09809 21.6638 8.09809 21.3709 8.39099Z" fill="white" fill-opacity="0.48"/>
</svg>
