<svg width="248" height="401" viewBox="0 0 248 401" fill="none" xmlns="http://www.w3.org/2000/svg">
<mask id="path-1-inside-1_4680_22096" fill="white">
<path d="M0 0H248V401H0V0Z"/>
</mask>
<path d="M0 0H248V401H0V0Z" fill="#121212"/>
<path d="M1 401V0H-1V401H1Z" fill="white" fill-opacity="0.12" mask="url(#path-1-inside-1_4680_22096)"/>
<path d="M120 28H118V30H120V28ZM115 27.25C115 26.0074 116.007 25 117.25 25H120.75C121.993 25 123 26.0074 123 27.25V30.75C123 31.9926 121.993 33 120.75 33H117.25C116.007 33 115 31.9926 115 30.75V27.25ZM117.25 26.5C116.836 26.5 116.5 26.8358 116.5 27.25V30.75C116.5 31.1642 116.836 31.5 117.25 31.5H120.75C121.164 31.5 121.5 31.1642 121.5 30.75V27.25C121.5 26.8358 121.164 26.5 120.75 26.5H117.25ZM118 38H120V40H118V38ZM115 37.25C115 36.0074 116.007 35 117.25 35H120.75C121.993 35 123 36.0074 123 37.25V40.75C123 41.9926 121.993 43 120.75 43H117.25C116.007 43 115 41.9926 115 40.75V37.25ZM117.25 36.5C116.836 36.5 116.5 36.8358 116.5 37.25V40.75C116.5 41.1642 116.836 41.5 117.25 41.5H120.75C121.164 41.5 121.5 41.1642 121.5 40.75V37.25C121.5 36.8358 121.164 36.5 120.75 36.5H117.25ZM130 28H128V30H130V28ZM127.25 25C126.007 25 125 26.0074 125 27.25V30.75C125 31.9926 126.007 33 127.25 33H130.75C131.993 33 133 31.9926 133 30.75V27.25C133 26.0074 131.993 25 130.75 25H127.25ZM126.5 27.25C126.5 26.8358 126.836 26.5 127.25 26.5H130.75C131.164 26.5 131.5 26.8358 131.5 27.25V30.75C131.5 31.1642 131.164 31.5 130.75 31.5H127.25C126.836 31.5 126.5 31.1642 126.5 30.75V27.25ZM125 35H127.75V37.75H125V35ZM130.25 37.75H127.75V40.25H125V43H127.75V40.25H130.25V43H133V40.25H130.25V37.75ZM130.25 37.75V35H133V37.75H130.25Z" fill="white"/>
<path d="M234 57H14V59H234V57Z" fill="white" fill-opacity="0.12" mask="url(#path-3-inside-2_4680_22096)"/>
<path d="M199.482 368C195.011 368 191.348 371.43 191 375.79L195.562 377.667C195.948 377.403 196.415 377.249 196.918 377.249C196.963 377.249 197.008 377.251 197.052 377.253L199.081 374.327C199.081 374.314 199.081 374.3 199.081 374.286C199.081 372.525 200.521 371.092 202.291 371.092C204.061 371.092 205.5 372.525 205.5 374.286C205.5 376.047 204.061 377.48 202.291 377.48C202.266 377.48 202.242 377.48 202.218 377.478L199.324 379.533C199.326 379.57 199.327 379.608 199.327 379.646C199.327 380.968 198.247 382.043 196.918 382.043C195.752 382.043 194.777 381.215 194.556 380.118L191.293 378.777C192.303 382.332 195.586 384.938 199.482 384.938C204.183 384.938 207.993 381.146 207.993 376.469C207.993 371.792 204.183 368 199.482 368Z" fill="white"/>
<path d="M196.335 380.85L195.289 380.42C195.474 380.804 195.795 381.126 196.22 381.302C197.141 381.684 198.201 381.249 198.585 380.333C198.77 379.89 198.772 379.401 198.587 378.957C198.404 378.512 198.057 378.166 197.611 377.981C197.169 377.798 196.695 377.804 196.279 377.961L197.359 378.405C198.037 378.687 198.358 379.462 198.075 380.137C197.793 380.813 197.013 381.132 196.335 380.85Z" fill="white"/>
<path d="M204.429 374.286C204.429 373.113 203.47 372.158 202.29 372.158C201.111 372.158 200.151 373.113 200.151 374.286C200.151 375.46 201.111 376.414 202.29 376.414C203.47 376.414 204.429 375.46 204.429 374.286ZM200.687 374.283C200.687 373.4 201.406 372.684 202.294 372.684C203.181 372.684 203.901 373.4 203.901 374.283C203.901 375.166 203.181 375.881 202.294 375.881C201.406 375.881 200.687 375.165 200.687 374.283Z" fill="white"/>
<path d="M229.667 373C232.063 373 234.006 374.946 234.006 377.346C234.006 379.746 232.063 381.692 229.667 381.692C227.287 381.692 224.123 377.406 224.144 377.347C224.144 377.346 224.145 377.345 224.145 377.345C224.194 377.278 227.29 373 229.667 373Z" stroke="#135EF2" stroke-width="5" stroke-miterlimit="10"/>
<path d="M231.69 377.404C232.072 376.899 232.095 376.208 231.748 375.679C231.402 375.149 230.76 374.894 230.144 375.041C227.619 375.645 226.252 375.748 225.573 375.682C225.601 375.605 225.636 375.516 225.679 375.414C225.709 375.344 225.752 375.246 225.8 375.136C225.895 374.92 226.011 374.658 226.082 374.472C226.147 374.303 226.221 374.091 226.268 373.863C226.312 373.65 226.36 373.304 226.268 372.917C226.161 372.467 225.882 372.043 225.425 371.775C225.027 371.542 224.618 371.5 224.332 371.5C221.105 371.5 218.493 374.12 218.493 377.346C218.493 380.573 221.105 383.192 224.332 383.192C225.347 383.192 226.279 382.749 227.002 382.284C227.752 381.802 228.448 381.185 229.027 380.605C230.131 379.501 230.945 378.396 231.06 378.239L231.69 377.404ZM225.204 375.61C225.204 375.61 225.205 375.61 225.207 375.611C225.205 375.61 225.204 375.61 225.204 375.61ZM225.472 376.052C225.472 376.055 225.471 376.057 225.471 376.057L225.472 376.052Z" stroke="#EDEDED" stroke-width="3" stroke-miterlimit="10" stroke-linejoin="round"/>
</svg>
