<svg width="11" height="8" viewBox="0 0 11 8" fill="none" xmlns="http://www.w3.org/2000/svg">
<path d="M0.501953 3.49805C0.501953 3.36133 0.550781 3.24414 0.648438 3.14648C0.746094 3.04883 0.863281 3 1 3C1.13672 3 1.25391 3.04883 1.35156 3.14648L4 5.79492L9.64844 0.146484C9.74609 0.0488281 9.86328 0 10 0C10.0703 0 10.1348 0.0136719 10.1934 0.0410156C10.2559 0.0644531 10.3086 0.0996094 10.3516 0.146484C10.3984 0.189453 10.4355 0.242187 10.4629 0.304688C10.4902 0.363281 10.5039 0.427734 10.5039 0.498047C10.5039 0.634766 10.4531 0.753906 10.3516 0.855469L4.35156 6.85547C4.25391 6.95312 4.13672 7.00195 4 7.00195C3.86328 7.00195 3.74609 6.95312 3.64844 6.85547L0.648438 3.85547C0.550781 3.75781 0.501953 3.63867 0.501953 3.49805Z" fill="black"/>
</svg>
