<svg width="32" height="32" viewBox="0 0 32 32" fill="none" xmlns="http://www.w3.org/2000/svg">
<rect width="32" height="32" rx="4" fill="white" fill-opacity="0.06"/>
<path d="M14 20H18C18.5523 20 19 20.4477 19 21C19 21.5128 18.614 21.9355 18.1166 21.9933L18 22H14C13.4477 22 13 21.5523 13 21C13 20.4872 13.386 20.0645 13.8834 20.0067L14 20H18H14ZM12 15H20C20.5523 15 21 15.4477 21 16C21 16.5128 20.614 16.9355 20.1166 16.9933L20 17H12C11.4477 17 11 16.5523 11 16C11 15.4872 11.386 15.0645 11.8834 15.0067L12 15H20H12ZM9 10H23C23.5523 10 24 10.4477 24 11C24 11.5128 23.614 11.9355 23.1166 11.9933L23 12H9C8.44772 12 8 11.5523 8 11C8 10.4872 8.38604 10.0645 8.88338 10.0067L9 10H23H9Z" fill="white"/>
</svg>
