<svg width="32" height="32" viewBox="0 0 32 32" fill="none" xmlns="http://www.w3.org/2000/svg">
<path d="M17.5 20C17.9142 20 18.25 20.3358 18.25 20.75C18.25 21.1642 17.9142 21.5 17.5 21.5H14.5C14.0858 21.5 13.75 21.1642 13.75 20.75C13.75 20.3358 14.0858 20 14.5 20H17.5ZM20.5 15C20.9142 15 21.25 15.3358 21.25 15.75C21.25 16.1642 20.9142 16.5 20.5 16.5H11.5C11.0858 16.5 10.75 16.1642 10.75 15.75C10.75 15.3358 11.0858 15 11.5 15H20.5ZM23.5 10C23.9142 10 24.25 10.3358 24.25 10.75C24.25 11.1642 23.9142 11.5 23.5 11.5H8.5C8.08579 11.5 7.75 11.1642 7.75 10.75C7.75 10.3358 8.08579 10 8.5 10H23.5Z" fill="white" fill-opacity="0.48"/>
</svg>
