<svg width="34" height="34" viewBox="0 0 34 34" fill="none" xmlns="http://www.w3.org/2000/svg">
<path d="M13.75 18C14.9926 18 16 19.0074 16 20.25V23.75C16 24.9926 14.9926 26 13.75 26H10.25C9.00736 26 8 24.9926 8 23.75V20.25C8 19.0074 9.00736 18 10.25 18H13.75ZM23.75 18C24.9926 18 26 19.0074 26 20.25V23.75C26 24.9926 24.9926 26 23.75 26H20.25C19.0074 26 18 24.9926 18 23.75V20.25C18 19.0074 19.0074 18 20.25 18H23.75ZM13.75 8C14.9926 8 16 9.00736 16 10.25V13.75C16 14.9926 14.9926 16 13.75 16H10.25C9.00736 16 8 14.9926 8 13.75V10.25C8 9.00736 9.00736 8 10.25 8H13.75ZM23.75 8C24.9926 8 26 9.00736 26 10.25V13.75C26 14.9926 24.9926 16 23.75 16H20.25C19.0074 16 18 14.9926 18 13.75V10.25C18 9.00736 19.0074 8 20.25 8H23.75Z" fill="white"/>
</svg>
