<svg width="34" height="34" viewBox="0 0 34 34" fill="none" xmlns="http://www.w3.org/2000/svg">
<rect width="34" height="34" rx="4" fill="white" fill-opacity="0.07"/>
<path d="M15.5495 7.53189C16.3874 6.82531 17.6126 6.82531 18.4505 7.5319L25.2005 13.224C25.7074 13.6515 26 14.2809 26 14.9441V24.7468C26 25.7133 25.2165 26.4968 24.25 26.4968H20.75C19.7835 26.4968 19 25.7133 19 24.7468V19.2468C19 19.1088 18.8881 18.9968 18.75 18.9968H15.25C15.1119 18.9968 15 19.1088 15 19.2468V24.7468C15 25.7133 14.2165 26.4968 13.25 26.4968H9.75C8.7835 26.4968 8 25.7133 8 24.7468V14.9441C8 14.2809 8.29255 13.6515 8.79952 13.224L15.5495 7.53189ZM17.4835 8.6786C17.2042 8.44307 16.7958 8.44307 16.5165 8.6786L9.76651 14.3707C9.59752 14.5132 9.5 14.723 9.5 14.9441V24.7468C9.5 24.8849 9.61193 24.9968 9.75 24.9968H13.25C13.3881 24.9968 13.5 24.8849 13.5 24.7468V19.2468C13.5 18.2803 14.2835 17.4968 15.25 17.4968H18.75C19.7165 17.4968 20.5 18.2803 20.5 19.2468V24.7468C20.5 24.8849 20.6119 24.9968 20.75 24.9968H24.25C24.3881 24.9968 24.5 24.8849 24.5 24.7468V14.9441C24.5 14.723 24.4025 14.5132 24.2335 14.3707L17.4835 8.6786Z" fill="white"/>
</svg>
