<svg width="26" height="46" viewBox="0 0 26 46" fill="none" xmlns="http://www.w3.org/2000/svg">
<path d="M13 18.75C12.0335 18.75 11.25 17.9665 11.25 17C11.25 16.0335 12.0335 15.25 13 15.25C13.9665 15.25 14.75 16.0335 14.75 17C14.75 17.9665 13.9665 18.75 13 18.75ZM13 24.75C12.0335 24.75 11.25 23.9665 11.25 23C11.25 22.0335 12.0335 21.25 13 21.25C13.9665 21.25 14.75 22.0335 14.75 23C14.75 23.9665 13.9665 24.75 13 24.75ZM11.25 29C11.25 29.9665 12.0335 30.75 13 30.75C13.9665 30.75 14.75 29.9665 14.75 29C14.75 28.0335 13.9665 27.25 13 27.25C12.0335 27.25 11.25 28.0335 11.25 29Z" fill="white"/>
</svg>
