<svg width="34" height="34" viewBox="0 0 34 34" fill="none" xmlns="http://www.w3.org/2000/svg">
<path d="M13.75 18.5C15.2862 18.5 16.5735 19.5658 16.9126 20.9983L26.25 21C26.6642 21 27 21.3358 27 21.75C27 22.1297 26.7178 22.4435 26.3518 22.4932L26.25 22.5L16.9129 22.5007C16.5741 23.9337 15.2866 25 13.75 25C12.2134 25 10.9259 23.9337 10.5871 22.5007L7.75 22.5C7.33579 22.5 7 22.1642 7 21.75C7 21.3703 7.28215 21.0565 7.64823 21.0068L7.75 21L10.5871 20.9993C10.9259 19.5663 12.2134 18.5 13.75 18.5ZM13.75 20C12.9859 20 12.3361 20.4898 12.0975 21.1725L12.077 21.2352L12.0385 21.3834C12.0133 21.5016 12 21.6242 12 21.75C12 21.9048 12.0201 22.055 12.0579 22.1979L12.0977 22.3279L12.1234 22.3966C12.3805 23.0431 13.0119 23.5 13.75 23.5C14.5138 23.5 15.1632 23.0107 15.4021 22.3285L15.4422 22.1978L15.4251 22.2581C15.4738 22.0973 15.5 21.9267 15.5 21.75C15.5 21.6452 15.4908 21.5425 15.4731 21.4428L15.4431 21.3057L15.4231 21.2353L15.3763 21.1024C15.1188 20.4565 14.4877 20 13.75 20ZM20.25 9C21.7866 9 23.0741 10.0663 23.4129 11.4993L26.25 11.5C26.6642 11.5 27 11.8358 27 12.25C27 12.6297 26.7178 12.9435 26.3518 12.9932L26.25 13L23.4129 13.0007C23.0741 14.4337 21.7866 15.5 20.25 15.5C18.7134 15.5 17.4259 14.4337 17.0871 13.0007L7.75 13C7.33579 13 7 12.6642 7 12.25C7 11.8703 7.28215 11.5565 7.64823 11.5068L7.75 11.5L17.0874 11.4983C17.4265 10.0658 18.7138 9 20.25 9ZM20.25 10.5C19.4859 10.5 18.8361 10.9898 18.5975 11.6725L18.577 11.7352L18.5385 11.8834C18.5133 12.0016 18.5 12.1242 18.5 12.25C18.5 12.4048 18.5201 12.555 18.5579 12.6979L18.5977 12.8279L18.6234 12.8966C18.8805 13.5431 19.5119 14 20.25 14C21.0138 14 21.6632 13.5107 21.9021 12.8285L21.9422 12.6978L21.9251 12.7581C21.9738 12.5973 22 12.4267 22 12.25C22 12.1452 21.9908 12.0425 21.9731 11.9428L21.9431 11.8057L21.9231 11.7353L21.8763 11.6024C21.6188 10.9565 20.9877 10.5 20.25 10.5Z" fill="white" fill-opacity="0.45"/>
</svg>
