<svg width="34" height="34" viewBox="0 0 34 34" fill="none" xmlns="http://www.w3.org/2000/svg">
<path d="M13.75 18.5C15.2869 18.5 16.5747 19.5668 16.9131 21.0003L26.25 21C26.6642 21 27 21.3358 27 21.75C27 22.1297 26.7178 22.4435 26.3518 22.4932L26.25 22.5L16.9129 22.5007C16.5741 23.9337 15.2866 25 13.75 25C12.2134 25 10.9259 23.9337 10.5871 22.5007L7.75 22.5C7.33579 22.5 7 22.1642 7 21.75C7 21.3703 7.28215 21.0565 7.64823 21.0068L7.75 21L10.5869 21.0003C10.9253 19.5668 12.2131 18.5 13.75 18.5ZM20.25 9C21.7869 9 23.0747 10.0668 23.4131 11.5003L26.25 11.5C26.6642 11.5 27 11.8358 27 12.25C27 12.6297 26.7178 12.9435 26.3518 12.9932L26.25 13L23.4129 13.0007C23.0741 14.4337 21.7866 15.5 20.25 15.5C18.7134 15.5 17.4259 14.4337 17.0871 13.0007L7.75 13C7.33579 13 7 12.6642 7 12.25C7 11.8703 7.28215 11.5565 7.64823 11.5068L7.75 11.5L17.0869 11.5003C17.4253 10.0668 18.7131 9 20.25 9Z" fill="white"/>
</svg>
