<svg width="248" height="58" viewBox="0 0 248 58" fill="none" xmlns="http://www.w3.org/2000/svg">
<path d="M120 28H118V30H120V28ZM115 27.25C115 26.0074 116.007 25 117.25 25H120.75C121.993 25 123 26.0074 123 27.25V30.75C123 31.9926 121.993 33 120.75 33H117.25C116.007 33 115 31.9926 115 30.75V27.25ZM117.25 26.5C116.836 26.5 116.5 26.8358 116.5 27.25V30.75C116.5 31.1642 116.836 31.5 117.25 31.5H120.75C121.164 31.5 121.5 31.1642 121.5 30.75V27.25C121.5 26.8358 121.164 26.5 120.75 26.5H117.25ZM118 38H120V40H118V38ZM115 37.25C115 36.0074 116.007 35 117.25 35H120.75C121.993 35 123 36.0074 123 37.25V40.75C123 41.9926 121.993 43 120.75 43H117.25C116.007 43 115 41.9926 115 40.75V37.25ZM117.25 36.5C116.836 36.5 116.5 36.8358 116.5 37.25V40.75C116.5 41.1642 116.836 41.5 117.25 41.5H120.75C121.164 41.5 121.5 41.1642 121.5 40.75V37.25C121.5 36.8358 121.164 36.5 120.75 36.5H117.25ZM130 28H128V30H130V28ZM127.25 25C126.007 25 125 26.0074 125 27.25V30.75C125 31.9926 126.007 33 127.25 33H130.75C131.993 33 133 31.9926 133 30.75V27.25C133 26.0074 131.993 25 130.75 25H127.25ZM126.5 27.25C126.5 26.8358 126.836 26.5 127.25 26.5H130.75C131.164 26.5 131.5 26.8358 131.5 27.25V30.75C131.5 31.1642 131.164 31.5 130.75 31.5H127.25C126.836 31.5 126.5 31.1642 126.5 30.75V27.25ZM125 35H127.75V37.75H125V35ZM130.25 37.75H127.75V40.25H125V43H127.75V40.25H130.25V43H133V40.25H130.25V37.75ZM130.25 37.75V35H133V37.75H130.25Z" fill="white"/>
<path d="M234 57H14V59H234V57Z" fill="white" fill-opacity="0.12" mask="url(#path-1-inside-1_4681_22099)"/>
</svg>
