<svg width="34" height="34" viewBox="0 0 34 34" fill="none" xmlns="http://www.w3.org/2000/svg">
<path d="M25.25 6.9994C26.2165 6.9994 27 7.78291 27 8.7494V11.7921C27 12.8163 26.4309 13.7556 25.5231 14.2297L19.223 17.5201C20.869 18.3385 22 20.0372 22 22C22 24.7614 19.7614 27 17 27C14.2386 27 12 24.7614 12 22C12 20.0372 13.131 18.3385 14.777 17.5201L8.47693 14.2297C7.56913 13.7556 7 12.8163 7 11.7921V8.7494C7 7.78291 7.7835 6.9994 8.75 6.9994H25.25ZM17 18.5C15.067 18.5 13.5 20.067 13.5 22C13.5 23.933 15.067 25.5 17 25.5C18.933 25.5 20.5 23.933 20.5 22C20.5 20.067 18.933 18.5 17 18.5ZM21 8.4994H12.997V14.8974L16.8843 16.9283C16.9568 16.9662 17.0432 16.9662 17.1157 16.9283L21 14.8984V8.4994Z" fill="white"/>
</svg>
