<svg width="34" height="34" viewBox="0 0 34 34" fill="none" xmlns="http://www.w3.org/2000/svg">
<path d="M25.25 6.9994C26.2165 6.9994 27 7.78291 27 8.7494V11.7921C27 12.8163 26.4309 13.7556 25.5231 14.2297L19.2413 17.51C20.8773 18.3318 22 20.0252 22 21.9808C22 24.7422 19.7614 26.9808 17 26.9808C14.2386 26.9808 12 24.7422 12 21.9808C12 20.0252 13.1227 18.3318 14.7587 17.51L8.47693 14.2297C7.56913 13.7556 7 12.8163 7 11.7921V8.7494C7 7.78291 7.7835 6.9994 8.75 6.9994H25.25ZM17 18.4808C15.067 18.4808 13.5 20.0478 13.5 21.9808C13.5 23.9138 15.067 25.4808 17 25.4808C18.933 25.4808 20.5 23.9138 20.5 21.9808C20.5 20.0478 18.933 18.4808 17 18.4808ZM20.5 8.4984H13.5V15.1604L16.8843 16.9283C16.9568 16.9662 17.0432 16.9662 17.1157 16.9283L20.5 15.1594V8.4984ZM12 8.4984L8.75 8.4994C8.61193 8.4994 8.5 8.61133 8.5 8.7494V11.7921C8.5 12.2576 8.75869 12.6846 9.17133 12.9001L12 14.3764V8.4984ZM25.25 8.4994L22 8.4984V14.3764L24.8287 12.9001C25.2413 12.6846 25.5 12.2576 25.5 11.7921V8.7494C25.5 8.61133 25.3881 8.4994 25.25 8.4994Z" fill="white" fill-opacity="0.48"/>
</svg>
