<svg width="16" height="16" viewBox="0 0 16 16" fill="none" xmlns="http://www.w3.org/2000/svg">
<path d="M14.6719 14C14.6719 14.0938 14.6536 14.1823 14.6172 14.2656C14.5807 14.3438 14.5312 14.4141 14.4688 14.4766C14.4062 14.5339 14.3333 14.5807 14.25 14.6172C14.1719 14.6484 14.0885 14.6641 14 14.6641C13.8177 14.6641 13.6615 14.599 13.5312 14.4688L9.9375 10.875C9.46354 11.2396 8.94792 11.5182 8.39062 11.7109C7.83854 11.9036 7.26302 12 6.66406 12C6.17448 12 5.70052 11.9375 5.24219 11.8125C4.78906 11.6823 4.36458 11.5026 3.96875 11.2734C3.57812 11.0391 3.21875 10.7604 2.89062 10.4375C2.56771 10.1146 2.29167 9.75521 2.0625 9.35938C1.83333 8.96354 1.65365 8.53906 1.52344 8.08594C1.39844 7.6276 1.33594 7.15365 1.33594 6.66406C1.33594 6.17448 1.39844 5.70312 1.52344 5.25C1.65365 4.79688 1.83333 4.3724 2.0625 3.97656C2.29688 3.58073 2.57552 3.22135 2.89844 2.89844C3.22135 2.57552 3.58073 2.29948 3.97656 2.07031C4.3724 1.83594 4.79688 1.65625 5.25 1.53125C5.70312 1.40104 6.17448 1.33594 6.66406 1.33594C7.39844 1.33594 8.08854 1.47656 8.73438 1.75781C9.38542 2.03385 9.95052 2.41406 10.4297 2.89844C10.9141 3.38281 11.2969 3.94792 11.5781 4.59375C11.8594 5.23958 12 5.92969 12 6.66406C12 7.26302 11.9036 7.84115 11.7109 8.39844C11.5182 8.95052 11.2396 9.46354 10.875 9.9375L14.4688 13.5312C14.5365 13.599 14.5859 13.6693 14.6172 13.7422C14.6536 13.8151 14.6719 13.901 14.6719 14ZM6.66406 10.6641H6.74219C7.28385 10.6641 7.79167 10.5573 8.26562 10.3438C8.74479 10.125 9.16146 9.83333 9.51562 9.46875C9.86979 9.09896 10.1484 8.67448 10.3516 8.19531C10.5599 7.71094 10.6641 7.20052 10.6641 6.66406C10.6641 6.11198 10.5599 5.59375 10.3516 5.10938C10.1432 4.61979 9.85677 4.19531 9.49219 3.83594C9.13281 3.47135 8.70833 3.1849 8.21875 2.97656C7.73438 2.76823 7.21615 2.66406 6.66406 2.66406C6.11198 2.66406 5.59115 2.76823 5.10156 2.97656C4.61719 3.1849 4.19271 3.47135 3.82812 3.83594C3.46875 4.19531 3.1849 4.61979 2.97656 5.10938C2.76823 5.59375 2.66406 6.11198 2.66406 6.66406C2.66406 7.21615 2.76823 7.73698 2.97656 8.22656C3.1849 8.71094 3.46875 9.13542 3.82812 9.5C4.19271 9.85938 4.61719 10.1432 5.10156 10.3516C5.59115 10.5599 6.11198 10.6641 6.66406 10.6641Z" fill="white" fill-opacity="0.3628"/>
</svg>
