<svg width="34" height="34" viewBox="0 0 34 34" fill="none" xmlns="http://www.w3.org/2000/svg">
<path d="M17.0125 7.25005C17.7465 7.25851 18.4776 7.34331 19.194 7.50309C19.5067 7.57283 19.7406 7.83356 19.7761 8.15201L19.9463 9.67886C20.0234 10.3799 20.6153 10.9109 21.3209 10.9116C21.5106 10.9119 21.6982 10.8724 21.8735 10.7949L23.2741 10.1796C23.5654 10.0516 23.9058 10.1214 24.1232 10.3537C25.1354 11.4347 25.8892 12.7312 26.328 14.1456C26.4226 14.4506 26.3137 14.7821 26.0567 14.9716L24.8152 15.8866C24.461 16.1468 24.2519 16.5601 24.2519 16.9995C24.2519 17.439 24.461 17.8522 24.816 18.1129L26.0585 19.0283C26.3157 19.2178 26.4246 19.5493 26.33 19.8543C25.8914 21.2685 25.138 22.5649 24.1264 23.6461C23.9092 23.8784 23.5691 23.9483 23.2778 23.8207L21.8715 23.2046C21.4691 23.0285 21.0071 23.0543 20.6268 23.274C20.2466 23.4938 19.9936 23.8812 19.9453 24.3178L19.7762 25.8445C19.7413 26.1593 19.5125 26.4182 19.2043 26.4915C17.7559 26.8362 16.2468 26.8362 14.7983 26.4915C14.4902 26.4182 14.2614 26.1593 14.2265 25.8445L14.0577 24.32C14.0081 23.8843 13.7546 23.498 13.3747 23.279C12.9948 23.06 12.5335 23.0343 12.1325 23.2094L10.7259 23.8257C10.4345 23.9533 10.0943 23.8833 9.87709 23.651C8.86493 22.5685 8.1115 21.2706 7.67351 19.8548C7.57917 19.5499 7.68817 19.2187 7.94515 19.0293L9.18848 18.1134C9.54262 17.8532 9.75178 17.44 9.75178 17.0005C9.75178 16.5611 9.54262 16.1478 9.18802 15.8873L7.94547 14.9729C7.6881 14.7835 7.579 14.4518 7.67367 14.1466C8.11242 12.7322 8.86625 11.4357 9.87843 10.3547C10.0959 10.1224 10.4362 10.0526 10.7276 10.1806L12.1279 10.7958C12.5309 10.9726 12.9941 10.9459 13.3761 10.7227C13.7564 10.5021 14.0096 10.1143 14.0585 9.67769L14.2285 8.15201C14.2641 7.8334 14.4982 7.57259 14.8111 7.50299C15.5284 7.34347 16.2603 7.2587 17.0125 7.25005ZM17.0127 8.74995C16.5586 8.75529 16.1059 8.79448 15.6581 8.86706L15.5492 9.84423C15.4474 10.7537 14.9203 11.5611 14.1307 12.0191C13.3363 12.4832 12.3677 12.5391 11.5249 12.1692L10.6266 11.7746C10.0547 12.4688 9.59945 13.2514 9.27883 14.0917L10.0766 14.6788C10.8154 15.2217 11.2518 16.0837 11.2518 17.0005C11.2518 17.9173 10.8154 18.7793 10.0774 19.3216L9.27835 19.9103C9.59869 20.7521 10.054 21.5362 10.6263 22.2317L11.5314 21.8351C12.3695 21.4692 13.3315 21.5228 14.1238 21.9795C14.9161 22.4362 15.4446 23.2418 15.5483 24.1527L15.6573 25.1365C16.5469 25.2878 17.4558 25.2878 18.3454 25.1365L18.4544 24.1527C18.5552 23.2421 19.0831 22.4337 19.8763 21.9753C20.6695 21.5169 21.6335 21.4631 22.4731 21.8305L23.3775 22.2267C23.9493 21.5323 24.4044 20.7495 24.725 19.909L23.927 19.3212C23.1882 18.7783 22.7519 17.9163 22.7519 16.9995C22.7519 16.0827 23.1882 15.2207 23.9261 14.6785L24.723 14.0911C24.4024 13.2507 23.9471 12.4679 23.3751 11.7736L22.4786 12.1674C22.1133 12.3291 21.7181 12.4123 21.319 12.4116C19.8493 12.4101 18.6158 11.3036 18.4554 9.84388L18.3465 8.86675C17.901 8.79425 17.4529 8.75517 17.0127 8.74995ZM17 13.25C19.0711 13.25 20.75 14.9289 20.75 17C20.75 19.0711 19.0711 20.75 17 20.75C14.9289 20.75 13.25 19.0711 13.25 17C13.25 14.9289 14.9289 13.25 17 13.25ZM17 14.75C15.7574 14.75 14.75 15.7574 14.75 17C14.75 18.2426 15.7574 19.25 17 19.25C18.2426 19.25 19.25 18.2426 19.25 17C19.25 15.7574 18.2426 14.75 17 14.75Z" fill="white" fill-opacity="0.48"/>
</svg>
