<svg width="34" height="34" viewBox="0 0 34 34" fill="none" xmlns="http://www.w3.org/2000/svg">
<path d="M17.0125 7.25005C17.7465 7.25851 18.4776 7.34331 19.194 7.50309C19.5067 7.57283 19.7406 7.83356 19.7761 8.15201L19.9463 9.67886C20.0234 10.3799 20.6153 10.9109 21.3209 10.9116C21.5106 10.9119 21.6982 10.8724 21.8735 10.7949L23.2741 10.1796C23.5654 10.0516 23.9058 10.1214 24.1232 10.3537C25.1354 11.4347 25.8892 12.7312 26.328 14.1456C26.4226 14.4506 26.3137 14.7821 26.0567 14.9716L24.8152 15.8866C24.461 16.1468 24.2519 16.5601 24.2519 16.9995C24.2519 17.439 24.461 17.8522 24.816 18.1129L26.0585 19.0283C26.3157 19.2178 26.4246 19.5493 26.33 19.8543C25.8914 21.2685 25.138 22.5649 24.1264 23.6461C23.9092 23.8784 23.5691 23.9483 23.2778 23.8207L21.8715 23.2046C21.4691 23.0285 21.0071 23.0543 20.6268 23.274C20.2466 23.4938 19.9936 23.8812 19.9453 24.3178L19.7762 25.8445C19.7413 26.1593 19.5125 26.4182 19.2043 26.4915C17.7559 26.8362 16.2468 26.8362 14.7983 26.4915C14.4902 26.4182 14.2614 26.1593 14.2265 25.8445L14.0577 24.32C14.0081 23.8843 13.7546 23.498 13.3747 23.279C12.9948 23.06 12.5335 23.0343 12.1325 23.2094L10.7259 23.8257C10.4345 23.9533 10.0943 23.8833 9.87709 23.651C8.86493 22.5685 8.1115 21.2706 7.6735 19.8548C7.57917 19.5499 7.68817 19.2187 7.94515 19.0293L9.18848 18.1134C9.54262 17.8532 9.75178 17.44 9.75178 17.0005C9.75178 16.5611 9.54262 16.1478 9.18802 15.8873L7.94547 14.9729C7.6881 14.7835 7.579 14.4518 7.67367 14.1466C8.11242 12.7322 8.86625 11.4357 9.87843 10.3547C10.0959 10.1224 10.4362 10.0526 10.7275 10.1806L12.1279 10.7958C12.5309 10.9726 12.9941 10.9459 13.3761 10.7227C13.7564 10.5021 14.0096 10.1143 14.0585 9.67769L14.2285 8.15201C14.2641 7.8334 14.4982 7.57259 14.8111 7.50299C15.5284 7.34347 16.2603 7.2587 17.0125 7.25005ZM17 14C15.3431 14 14 15.3431 14 17C14 18.6569 15.3431 20 17 20C18.6569 20 20 18.6569 20 17C20 15.3431 18.6569 14 17 14Z" fill="white"/>
</svg>
